<?xml version="1.0" standalone="no"?>
<!DOCTYPE svg PUBLIC "-//W3C//DTD SVG 20010904//EN"
 "http://www.w3.org/TR/2001/REC-SVG-20010904/DTD/svg10.dtd">
<svg version="1.0" xmlns="http://www.w3.org/2000/svg"
 width="250.000000pt" height="250.000000pt" viewBox="0 0 250.000000 250.000000"
 preserveAspectRatio="xMidYMid meet">
<metadata>
Created by potrace 1.11, written by Peter Selinger 2001-2013
</metadata>
<g transform="translate(0.000000,250.000000) scale(0.100000,-0.100000)"
fill="#000000" stroke="none">
<path d="M1110 2479 c-294 -36 -544 -162 -751 -376 -103 -107 -154 -181 -219
-316 -87 -180 -124 -344 -124 -547 2 -469 267 -888 699 -1100 187 -92 422
-141 605 -125 329 29 575 140 796 360 56 55 125 136 154 179 73 109 144 262
177 381 26 95 28 110 27 315 0 201 -1 221 -26 313 -95 348 -338 643 -661 801
-198 97 -463 142 -677 115z m348 -55 c183 -61 327 -221 377 -419 19 -75 19
-223 0 -295 -45 -169 -165 -316 -316 -388 -100 -48 -146 -59 -301 -71 -177
-15 -298 -71 -411 -191 -120 -126 -172 -268 -165 -445 9 -211 122 -401 302
-506 l51 -30 -45 7 c-96 14 -274 96 -400 185 -149 104 -295 277 -383 454 -160
324 -162 713 -3 1039 112 231 264 398 476 526 248 149 601 207 818 134z m-661
-1600 c3 -8 -2 -23 -11 -32 -15 -15 -17 -15 -32 0 -21 21 -11 48 16 48 11 0
23 -7 27 -16z m711 -10 c4 -26 -26 -40 -45 -21 -8 7 -11 21 -7 31 9 24 48 17
52 -10z m-120 -72 c30 -5 28 -22 -3 -22 -24 0 -25 -2 -25 -74 0 -78 10 -97 37
-74 15 12 15 11 4 -9 -11 -22 -27 -28 -61 -23 -29 3 -40 33 -40 106 0 48 -4
74 -12 76 -7 3 3 19 25 42 20 20 38 42 38 49 1 7 5 -6 8 -28 5 -32 11 -41 29
-43z m-148 -32 l-1 -35 -20 28 c-13 16 -30 27 -45 27 -38 0 -29 -26 21 -60 25
-17 48 -41 51 -54 13 -51 -41 -95 -92 -76 -14 6 -30 8 -35 4 -5 -3 -9 8 -9 25
l0 30 25 -24 c13 -14 33 -25 44 -25 40 0 34 23 -18 69 -38 34 -51 53 -51 73 0
37 33 57 86 55 43 -2 44 -3 44 -37z m466 15 c21 -21 23 -29 14 -40 -20 -24
-40 -17 -52 16 -7 19 -16 29 -27 27 -23 -5 -28 -101 -6 -134 17 -27 61 -33 85
-11 8 6 4 0 -9 -15 -58 -67 -152 -21 -151 74 1 89 90 139 146 83z m195 -4 c16
-16 29 -39 29 -50 0 -19 -6 -21 -59 -21 l-60 0 11 -31 c15 -43 49 -57 83 -35
26 17 26 17 16 -2 -17 -32 -39 -44 -78 -44 -52 0 -83 37 -83 98 0 55 12 79 48
98 40 22 60 19 93 -13z m-1101 -98 c0 -141 -9 -167 -61 -171 -39 -3 -65 17
-55 44 8 21 30 12 34 -14 2 -12 8 -22 13 -22 14 0 12 253 -3 268 -9 9 -3 12
30 12 l42 0 0 -117z m140 27 c0 -91 8 -108 38 -78 17 17 16 155 0 161 -7 3 6
6 30 6 l42 1 0 -88 c0 -55 4 -92 12 -100 9 -9 3 -12 -29 -12 -23 0 -43 5 -45
11 -2 6 -14 5 -33 -5 -25 -13 -33 -13 -50 -2 -17 11 -20 26 -23 92 -2 43 -8
84 -14 91 -8 10 -2 13 31 13 l41 0 0 -90z m570 0 c0 -74 3 -91 18 -99 13 -8 3
-10 -42 -11 -47 0 -57 3 -48 12 17 17 16 175 0 181 -7 3 6 6 30 6 l42 1 0 -90z"/>
<path d="M734 1954 c13 -12 16 -40 16 -139 0 -108 -2 -125 -17 -134 -14 -8 -2
-10 47 -10 49 0 61 2 48 10 -13 7 -18 23 -18 54 0 44 1 44 24 34 72 -33 139
59 107 144 -5 13 -17 31 -26 40 -19 20 -76 22 -93 5 -9 -9 -12 -9 -12 0 0 8
-17 12 -46 12 -41 0 -44 -1 -30 -16z m134 -16 c7 -7 12 -41 12 -80 0 -54 -3
-70 -16 -75 -33 -12 -49 11 -52 76 -4 79 21 114 56 79z"/>
<path d="M1006 1939 c-40 -47 -34 -130 13 -166 27 -21 79 -15 106 12 29 28 35
57 7 32 -26 -23 -58 -21 -76 5 -31 44 -22 58 39 58 47 0 55 3 55 19 0 10 -9
30 -21 45 -31 39 -88 37 -123 -5z m84 2 c18 -35 12 -51 -20 -51 -25 0 -30 4
-30 23 0 23 16 47 32 47 4 0 12 -9 18 -19z"/>
<path d="M1202 1947 c-27 -28 -28 -43 -3 -56 13 -7 23 -6 36 3 14 10 16 16 6
34 -10 18 -9 23 4 28 21 8 45 -13 45 -40 -1 -15 -16 -30 -53 -51 -35 -20 -53
-37 -55 -53 -7 -47 41 -68 85 -37 19 13 22 13 27 0 7 -19 50 -19 66 0 9 10 9
15 1 15 -7 0 -11 26 -11 73 0 89 -14 107 -82 107 -34 0 -50 -6 -66 -23z m88
-106 c0 -31 -22 -57 -40 -46 -15 9 -12 36 7 57 23 26 33 22 33 -11z"/>
<path d="M1436 1945 c-87 -93 20 -241 118 -164 33 26 34 45 1 23 -23 -15 -27
-15 -50 0 -14 9 -29 33 -35 57 -19 68 18 133 41 73 12 -33 26 -44 46 -37 16 6
17 45 1 61 -7 7 -32 12 -55 12 -34 0 -49 -6 -67 -25z"/>
<path d="M1643 1955 c-31 -21 -45 -79 -33 -127 20 -72 94 -91 145 -38 16 16
26 32 23 35 -3 3 -11 -1 -18 -10 -27 -32 -83 -8 -92 40 -3 18 3 20 55 23 58 3
59 3 52 30 -4 15 -14 35 -22 45 -20 21 -81 23 -110 2z m75 -33 c3 -28 0 -32
-22 -32 -32 0 -39 12 -26 45 14 37 44 30 48 -13z"/>
<path d="M1820 704 c-14 -35 -14 -34 26 -34 33 0 36 2 30 23 -3 12 -6 25 -6
30 0 19 -41 5 -50 -19z"/>
</g>
</svg>
